<svg width="800" height="800" viewBox="0 0 800 800" fill="none" xmlns="http://www.w3.org/2000/svg">
<path d="M550.008 185.689H528.578C528.578 174.322 524.063 163.42 516.025 155.383C507.987 147.345 497.086 142.829 485.719 142.829H473.954C466.491 129.815 455.725 119.001 442.743 111.481C429.761 103.96 415.024 100 400.022 100C385.019 100 370.283 103.96 357.301 111.481C344.319 119.001 333.553 129.815 326.09 142.829H314.282C302.915 142.829 292.014 147.345 283.976 155.383C275.938 163.42 271.423 174.322 271.423 185.689H249.993C232.943 185.689 216.59 192.462 204.534 204.519C192.477 216.575 185.704 232.927 185.704 249.978V635.711C185.704 652.762 192.477 669.114 204.534 681.17C216.59 693.227 232.943 700 249.993 700H550.008C567.058 700 583.411 693.227 595.467 681.17C607.524 669.114 614.297 652.762 614.297 635.711V249.978C614.297 232.927 607.524 216.575 595.467 204.519C583.411 192.462 567.058 185.689 550.008 185.689ZM314.282 185.689H339.655C344.075 185.683 348.386 184.311 351.996 181.76C355.606 179.208 358.339 175.603 359.82 171.438C362.71 163.082 368.134 155.835 375.335 150.706C382.537 145.577 391.159 142.82 400 142.82C408.842 142.82 417.464 145.577 424.666 150.706C431.867 155.835 437.291 163.082 440.181 171.438C441.662 175.603 444.395 179.208 448.005 181.76C451.615 184.311 455.926 185.683 460.346 185.689H485.719V228.548H314.282V185.689ZM571.438 635.711C571.438 641.395 569.18 646.845 565.161 650.864C561.142 654.883 555.691 657.141 550.008 657.141H249.993C244.31 657.141 238.859 654.883 234.84 650.864C230.821 646.845 228.563 641.395 228.563 635.711V249.978C228.563 244.294 230.821 238.843 234.84 234.825C238.859 230.806 244.31 228.548 249.993 228.548H271.423C271.423 239.915 275.938 250.816 283.976 258.854C292.014 266.892 302.915 271.407 314.282 271.407H485.719C497.086 271.407 507.987 266.892 516.025 258.854C524.063 250.816 528.578 239.915 528.578 228.548H550.008C555.691 228.548 561.142 230.806 565.161 234.825C569.18 238.843 571.438 244.294 571.438 249.978V635.711Z" fill="black"/>
<path d="M314.282 357.113H292.852C287.169 357.113 281.718 359.371 277.699 363.39C273.681 367.409 271.423 372.859 271.423 378.543C271.423 384.226 273.681 389.677 277.699 393.696C281.718 397.715 287.169 399.973 292.852 399.973H314.282C319.966 399.973 325.416 397.715 329.435 393.696C333.454 389.677 335.712 384.226 335.712 378.543C335.712 372.859 333.454 367.409 329.435 363.39C325.416 359.371 319.966 357.113 314.282 357.113Z" fill="black"/>
<path d="M507.149 357.113H378.571C372.888 357.113 367.437 359.371 363.418 363.39C359.399 367.409 357.142 372.859 357.142 378.543C357.142 384.226 359.399 389.677 363.418 393.696C367.437 397.715 372.888 399.973 378.571 399.973H507.149C512.833 399.973 518.283 397.715 522.302 393.696C526.321 389.677 528.579 384.226 528.579 378.543C528.579 372.859 526.321 367.409 522.302 363.39C518.283 359.371 512.833 357.113 507.149 357.113Z" fill="black"/>
<path d="M314.282 442.832H292.852C287.169 442.832 281.718 445.09 277.699 449.109C273.681 453.127 271.423 458.578 271.423 464.262C271.423 469.945 273.681 475.396 277.699 479.415C281.718 483.434 287.169 485.691 292.852 485.691H314.282C319.966 485.691 325.416 483.434 329.435 479.415C333.454 475.396 335.712 469.945 335.712 464.262C335.712 458.578 333.454 453.127 329.435 449.109C325.416 445.09 319.966 442.832 314.282 442.832Z" fill="black"/>
<path d="M507.149 442.832H378.571C372.888 442.832 367.437 445.09 363.418 449.109C359.399 453.127 357.142 458.578 357.142 464.262C357.142 469.945 359.399 475.396 363.418 479.415C367.437 483.434 372.888 485.691 378.571 485.691H507.149C512.833 485.691 518.283 483.434 522.302 479.415C526.321 475.396 528.579 469.945 528.579 464.262C528.579 458.578 526.321 453.127 522.302 449.109C518.283 445.09 512.833 442.832 507.149 442.832Z" fill="black"/>
<path d="M314.282 528.551H292.852C287.169 528.551 281.718 530.809 277.699 534.827C273.681 538.846 271.423 544.297 271.423 549.98C271.423 555.664 273.681 561.115 277.699 565.133C281.718 569.152 287.169 571.41 292.852 571.41H314.282C319.966 571.41 325.416 569.152 329.435 565.133C333.454 561.115 335.712 555.664 335.712 549.98C335.712 544.297 333.454 538.846 329.435 534.827C325.416 530.809 319.966 528.551 314.282 528.551Z" fill="black"/>
<path d="M507.149 528.551H378.571C372.888 528.551 367.437 530.809 363.418 534.827C359.399 538.846 357.142 544.297 357.142 549.98C357.142 555.664 359.399 561.115 363.418 565.133C367.437 569.152 372.888 571.41 378.571 571.41H507.149C512.833 571.41 518.283 569.152 522.302 565.133C526.321 561.115 528.579 555.664 528.579 549.98C528.579 544.297 526.321 538.846 522.302 534.827C518.283 530.809 512.833 528.551 507.149 528.551Z" fill="black"/>
</svg>
